<svg width="183" height="51" viewBox="0 0 183 51" fill="none" xmlns="http://www.w3.org/2000/svg">
<g clip-path="url(#clip0_36_52)">
<path d="M0 50.4538C1.05277 48.5606 1.5553 46.454 2.275 44.4356C6.20073 33.4299 10.0447 22.3959 13.9782 11.3932C15.1313 8.16781 17.604 6.0544 20.4945 4.4363C24.7357 2.06152 29.3666 0.922093 34.16 0.598081C44.1628 -0.0773505 54.188 0.586335 64.1956 0.270154C75.3905 -0.0832238 86.5853 -0.039174 97.7743 0.11549C125.678 0.500193 153.582 0.164435 181.486 0.310289C181.952 0.312246 182.451 0.181076 183.001 0.60787C182.744 1.56131 182.48 2.56858 182.202 3.57194C179.323 13.9883 176.567 24.4408 173.518 34.8072C171.206 42.6726 165.711 47.5181 158.013 49.9232C155.49 50.7112 152.87 50.9706 150.239 50.9716C136.548 50.9775 122.855 50.951 109.163 50.9452C92.6769 50.9373 76.1881 51.1047 59.7051 50.8952C39.8027 50.6427 19.9014 50.8708 0.000973886 50.7181V50.4538H0Z" fill="#FFF100"/>
<path d="M2.10938 49.5058C3.31212 45.4699 4.93462 41.5847 6.36915 37.6339C9.43689 29.1861 12.5368 20.7491 15.6941 12.3355C17.0459 8.73518 19.9948 6.69029 23.2661 5.05065C26.2277 3.56666 29.4493 2.93724 32.6426 2.21873C34.9498 1.70677 37.2706 1.35046 39.6449 1.61084C40.3003 1.62651 40.9548 1.65587 41.6102 1.65587C87.4344 1.65783 133.258 1.65685 179.082 1.66468C179.681 1.66468 180.302 1.52666 180.855 1.79781C181.175 2.20894 180.812 2.58875 180.876 2.96856C180.935 3.041 180.963 3.11735 180.957 3.1986C180.951 3.2818 180.939 3.3239 180.923 3.3239C180.85 3.57841 180.831 3.84858 180.698 4.08449C178.32 12.498 175.883 20.8939 173.433 29.2859C172.947 30.953 172.654 32.6846 171.885 34.2636C168.976 42.4001 163.237 47.2867 154.912 49.2102C154.788 49.2386 154.677 49.3208 154.561 49.3786C153.749 49.8093 152.827 49.7065 151.969 49.9199C102.994 49.9346 54.0204 49.9218 5.04662 49.9267C4.0737 49.7476 2.99172 50.3369 2.11035 49.5068L2.10938 49.5058Z" fill="#040404"/>
<path d="M2.10938 49.5062C3.07255 49.5678 4.03475 49.6295 4.99792 49.6902C5.46246 49.883 5.94941 49.7891 6.42466 49.7891C54.5541 49.794 102.684 49.794 150.813 49.7891C151.287 49.7891 151.775 49.8879 152.238 49.6853C153.012 49.5825 153.786 49.4807 154.561 49.3779C155.048 49.4836 154.958 49.6589 154.566 49.7176C153.359 49.8997 152.144 50.1689 150.932 50.1699C101.938 50.1924 52.9433 50.1894 3.94905 50.1865C3.26148 50.1865 2.51159 50.3089 2.10938 49.5062Z" fill="#FFF100"/>
<path d="M39.6453 1.6101C37.3109 1.81272 34.9775 2.01535 32.6431 2.21798C32.5301 2.17295 32.4162 2.12891 32.1172 2.00948C35.1158 1.41236 37.9771 1.14317 40.8276 1.14023C86.8866 1.10401 132.946 1.11478 179.004 1.11478H180.254C180.252 1.20288 180.249 1.29 180.247 1.3781H178.574C132.996 1.3781 87.4193 1.3781 41.8414 1.38299C41.1052 1.38299 40.3485 1.26063 39.6453 1.60912V1.6101Z" fill="#FFF100"/>
<path d="M180.84 3.16942C180.822 3.09699 180.834 3.02944 180.877 2.96777C181.195 3.48267 180.982 3.97994 180.836 4.48505C178.036 14.2015 175.24 23.9189 172.438 33.6343C172.358 33.9123 172.387 34.2559 172.066 34.4194C172.044 34.4312 171.988 34.3949 171.959 34.3685C171.928 34.3401 171.909 34.298 171.885 34.2618C173.178 29.6738 174.455 25.0808 175.77 20.4987C177.376 14.9063 179.014 9.32271 180.638 3.7362C180.749 3.56294 180.725 3.34073 180.84 3.16845V3.16942Z" fill="#FFF100"/>
<path d="M177.412 6.6469C175.047 14.9214 172.645 23.1852 170.337 31.4764C169.516 34.4248 168.488 37.2263 166.623 39.6922C163.304 44.0795 158.887 46.5688 153.547 47.5223C151.889 47.4332 150.27 47.8385 148.607 47.8375C109.816 47.8081 71.0244 47.861 32.2336 47.7787C23.6225 47.7602 15.0094 47.7406 6.39735 47.6799C6.14219 47.6779 5.8734 47.7445 5.53059 47.535C5.37379 46.9369 5.87437 46.3506 5.80328 45.7123C8.12113 39.3672 10.4361 33.0201 12.7558 26.6759C14.3832 22.2259 16.0203 17.7788 17.6467 13.3278C18.4122 11.234 19.7522 9.57475 21.5569 8.33254C24.4084 6.3689 27.5949 5.19913 30.987 4.57558C32.6952 4.61669 34.3303 4.07439 36.0259 3.94713C37.9405 3.80226 39.8503 3.62214 41.7718 3.62214C86.5618 3.62214 131.351 3.62214 176.141 3.63095C176.688 3.63095 177.273 3.45671 177.829 3.84337C177.985 4.81442 177.312 5.67976 177.413 6.6469H177.412Z" fill="#FFF100"/>
<path d="M5.80175 45.7119C6.1465 46.217 5.68683 46.7388 5.83097 47.2683C6.20007 47.701 6.71525 47.5434 7.17103 47.5434C54.8437 47.5512 102.516 47.5473 150.189 47.5679C151.309 47.5679 152.422 46.96 153.546 47.5219C153.411 47.5405 153.275 47.5581 153.14 47.5767C152.78 47.7725 152.352 47.5835 151.992 47.7783C150.742 48.0378 149.476 48.0779 148.205 48.0769C109.143 48.0397 70.0792 48.0045 31.0166 47.9643C22.9246 47.9565 14.8316 47.9301 6.7396 47.9134C6.22149 47.9125 5.70339 47.9134 5.08789 47.9134C5.20184 47.0354 5.44725 46.357 5.80175 45.7109V45.7119Z" fill="#FFF100"/>
<path d="M177.411 6.64651C176.932 5.78019 177.738 4.94618 177.513 4.11217C177.062 3.62077 176.506 3.76075 176.002 3.76075C130.992 3.7539 85.9826 3.74117 40.9725 3.78914C38.2359 3.79208 35.4789 4.08183 32.7724 4.63C32.1676 4.75236 31.5716 4.90899 30.9844 4.57616C34.4855 3.703 38.0548 3.39269 41.6455 3.39171C86.7734 3.37801 131.9 3.3829 177.028 3.38192C177.411 3.38192 177.795 3.38192 178.266 3.38192C178.142 4.60847 177.745 5.61966 177.41 6.64651H177.411Z" fill="#FFF100"/>
<path d="M152.237 49.6853C151.668 49.9956 151.046 49.9261 150.438 49.9261C102.514 49.9271 54.5912 49.9261 6.66729 49.9231C6.10146 49.9231 5.52589 49.9731 4.99805 49.6892C14.2276 49.6784 23.4561 49.6539 32.6856 49.6588C62.432 49.6745 92.1784 49.7068 121.925 49.7215C132.029 49.7264 142.133 49.697 152.237 49.6833V49.6853Z" fill="#FFF100"/>
<path d="M151.992 47.7793C152.351 47.5747 152.741 47.5551 153.139 47.5776C152.758 47.6452 152.375 47.7127 151.992 47.7793Z" fill="#FFF100"/>
<path d="M93.383 34.2395C89.8303 34.7162 86.3866 35.4005 82.9147 34.449C80.6407 33.8254 79.2802 32.2739 78.8565 29.9265C77.3489 21.5796 84.9482 14.9691 92.9146 17.6953C95.2071 18.4794 96.1147 20.0456 95.6648 22.6348C94.463 22.7963 93.2252 22.7366 92.0059 22.6749C91.5063 20.2238 90.7204 19.6511 88.2633 19.8655C86.3661 20.031 84.9735 21.0118 84.0658 22.6446C82.9975 24.5671 82.5261 26.6531 82.7073 28.8586C82.8855 31.017 84.1048 32.2122 86.2551 32.3307C87.5212 32.4002 88.7824 32.3189 90.1176 31.9097C90.3182 30.8261 90.5217 29.7219 90.736 28.5659C89.6832 28.1058 88.5993 28.559 87.5036 28.1988C87.6166 27.3149 87.6215 26.4143 88.0607 25.5382H94.91C94.4017 28.4357 93.9128 31.2235 93.383 34.2395Z" fill="#040404"/>
<path d="M158.227 26.1406C160.195 26.863 160.496 28.3147 160.479 29.9279C160.463 31.454 160.267 32.9791 160.574 34.558C159.271 34.7352 158.072 34.7176 156.762 34.5639C156.531 33.0916 156.663 31.6605 156.802 30.2313C156.996 28.2158 156.627 27.792 154.642 27.788C153.729 27.7861 152.816 27.788 151.765 27.788C151.333 30.0806 150.915 32.2997 150.492 34.5502C149.24 34.7293 148.088 34.743 146.789 34.5375C147.793 28.8599 148.785 23.2558 149.812 17.452C153.256 17.5988 156.651 17.0614 159.999 17.8837C161.262 18.194 162.201 19.0094 162.4 20.3886C162.659 22.1712 162.063 23.6738 160.73 24.8749C160.083 25.4583 159.278 25.7754 158.225 26.1416L158.227 26.1406Z" fill="#040404"/>
<path d="M146.494 25.4027C146.462 28.7906 144.119 32.7336 140.46 34.1598C138.279 35.0105 136.037 35.1465 133.771 34.5083C131.36 33.8299 129.927 32.1188 129.681 29.5982C129.399 26.7036 130.03 23.997 131.526 21.5214C133.845 17.6842 139.039 16.0083 143.142 17.7791C145.885 18.9636 146.551 21.3334 146.494 25.4027Z" fill="#040404"/>
<path d="M30.0186 17.5254H34.4576C35.4568 23.2078 36.4472 28.8433 37.4513 34.5561C36.119 34.7176 34.9669 34.746 33.7534 34.5443C33.5119 33.401 33.2801 32.2997 33.0347 31.1349H26.2399C25.6098 32.2694 24.9758 33.4117 24.3136 34.603H20.7891C23.9113 28.8266 26.9538 23.1951 30.0186 17.5254Z" fill="#040404"/>
<path d="M106.039 17.5312H110.478C111.475 23.197 112.463 28.808 113.466 34.512C112.18 34.7978 111.024 34.6265 109.795 34.6471C109.546 33.447 109.317 32.3438 109.07 31.1505H102.252C101.653 32.2263 101.019 33.3667 100.359 34.5512C99.2453 34.7411 98.1439 34.7274 96.8398 34.5414C99.9465 28.7963 102.985 23.1775 106.038 17.5312H106.039Z" fill="#040404"/>
<path d="M116.591 17.5342H130.385C130.437 18.5356 130.266 19.4107 129.874 20.3592H124.9C124.046 25.1176 123.205 29.8026 122.357 34.5267C121.121 34.7685 119.968 34.696 118.64 34.5707C119.461 29.8633 120.269 25.2253 121.105 20.4336H116.193C116.027 19.349 116.338 18.47 116.592 17.5332L116.591 17.5342Z" fill="#040404"/>
<path d="M52.2 31.7419C52.4522 32.6904 51.9322 33.5381 51.9244 34.5571H40.7617C41.7726 28.8512 42.7728 23.2109 43.7866 17.4873H47.4212C47.54 19.5077 46.8884 21.4195 46.5963 23.3812C46.269 25.5788 45.8746 27.7646 45.4403 29.9446C45.3663 30.3186 45.3419 30.7316 45.6652 31.1545C46.3421 31.5627 47.1757 31.3953 47.9772 31.4648C49.3835 31.5882 50.8268 31.1359 52.201 31.7409L52.2 31.7419Z" fill="#040404"/>
<path d="M66.9012 31.7419C67.0745 32.6845 66.7122 33.5518 66.5476 34.5571H55.4551C56.466 28.8512 57.4652 23.2089 58.479 17.4873H62.1174C62.2635 19.4265 61.6578 21.2687 61.3461 23.1433C60.9741 25.3771 60.5836 27.61 60.157 29.836C60.0684 30.3009 60.0197 30.7972 60.418 31.3082C62.0843 31.8358 63.8802 31.4962 65.6458 31.5892C66.0685 31.6117 66.5155 31.4198 66.9021 31.7419H66.9012Z" fill="#040404"/>
<path d="M73.6996 34.6081C72.489 34.6786 71.2785 34.7618 69.9258 34.5386C70.9376 28.8327 71.9369 23.1972 72.9536 17.4639C74.0833 17.4639 75.0806 17.4668 76.0768 17.4619C76.442 17.46 76.6456 17.6244 76.6758 17.9944C76.368 21.5742 75.5188 25.0659 74.953 28.6036C74.6764 30.3343 74.3628 32.0601 74.0268 33.781C73.9684 34.0815 73.9742 34.3977 73.6986 34.6071L73.6996 34.6081Z" fill="#050505"/>
<path d="M52.1997 31.7419H44.918C45.7701 26.8846 46.595 22.186 47.4199 17.4873C47.8961 18.0267 47.713 18.6297 47.6039 19.2376C47.0079 22.5609 46.4168 25.8852 45.8354 29.2105C45.5705 30.7228 45.8704 31.1154 47.4092 31.1751C48.6294 31.2221 49.8546 31.1663 51.0749 31.2103C51.4907 31.225 52.1052 30.9783 52.1997 31.7428V31.7419Z" fill="#FFF100"/>
<path d="M66.9009 31.7419H59.6094C60.4635 26.8876 61.2903 22.1879 62.1162 17.4883C62.5427 17.9395 62.3976 18.4564 62.3051 18.9811C61.6974 22.4414 61.0955 25.9028 60.5024 29.3651C60.2551 30.8119 60.6144 31.3209 62.0947 31.4139C63.3131 31.4903 64.5411 31.4139 65.7643 31.4227C66.1636 31.4257 66.6564 31.1565 66.9009 31.7419Z" fill="#FFF100"/>
<path d="M73.6992 34.6083C74.6916 29.0707 75.684 23.5332 76.6774 17.9946C77.0786 17.7147 77.0981 17.9457 77.0396 18.2707C76.1115 23.4343 75.1824 28.5979 74.2573 33.7625C74.191 34.1316 74.0099 34.4096 73.6992 34.6083Z" fill="#FFF100"/>
<path d="M152.265 24.7229C152.531 23.2683 152.781 21.8988 153.033 20.5206C154.085 20.2455 155.087 20.4041 156.076 20.3835C157.104 20.362 158.162 20.3972 158.395 21.7393C158.622 23.0422 157.709 24.4136 156.429 24.7699C155.75 24.9588 153.51 24.9481 152.264 24.722L152.265 24.7229Z" fill="#FFF100"/>
<path d="M142.629 23.9752C142.571 25.9604 142.202 27.7987 141.362 29.5235C140.829 30.6189 140.057 31.4921 138.923 31.9962C136.041 33.2756 133.627 31.8004 133.533 28.6827C133.475 26.7239 133.837 24.8327 134.646 23.0472C134.896 22.4942 135.222 21.9558 135.607 21.4879C136.851 19.9755 139.007 19.3803 140.708 20.0841C142.495 20.8242 142.619 22.4178 142.628 23.9752H142.629Z" fill="#FFF100"/>
<path d="M31.6727 21.2063C31.9785 23.4519 32.2853 25.6974 32.6086 28.0693C30.9832 28.2885 29.4883 28.1848 27.709 28.1495C28.9994 25.671 30.1875 23.3882 31.3757 21.1064C31.475 21.1397 31.5734 21.174 31.6727 21.2073V21.2063Z" fill="#FFF100"/>
<path d="M108.669 28.1209H103.752C105.005 25.7041 106.175 23.4477 107.346 21.1904C107.45 21.1924 107.554 21.1934 107.658 21.1953C107.989 23.4654 108.321 25.7364 108.669 28.1209Z" fill="#FFF100"/>
</g>
<defs>
<clipPath id="clip0_36_52">
<rect width="183" height="51" fill="white"/>
</clipPath>
</defs>
</svg>
